<svg width="32768" height="548" viewBox="0 0 32768 548" fill="none" xmlns="http://www.w3.org/2000/svg">
<rect x="21845.3" width="341.333" height="74.6253" fill="#C9C9C9"/>
<path fill-rule="evenodd" clip-rule="evenodd" d="M21910.2 74.6253C21949.3 74.6253 21981 97.3605 21981 125.406H22051.8C22051.8 97.3605 22083.5 74.6253 22122.6 74.6253H21910.2ZM21910.2 74.6253C21909.7 74.6253 21909.3 74.6278 21908.9 74.6328V74.6253H21910.2Z" fill="#C9C9C9"/>
<rect x="21981" y="125.406" width="70.8294" height="422.582" fill="#C9C9C9"/>
<rect x="22186.7" width="341.333" height="74.6253" fill="#C9C9C9"/>
<path fill-rule="evenodd" clip-rule="evenodd" d="M22251.5 74.6253C22290.6 74.6253 22322.3 97.3605 22322.3 125.406H22393.1C22393.1 97.3605 22424.9 74.6253 22464 74.6253H22251.5ZM22251.5 74.6253C22251.1 74.6253 22250.7 74.6278 22250.3 74.6328V74.6253H22251.5Z" fill="#C9C9C9"/>
<rect x="22322.3" y="125.406" width="70.8294" height="422.582" fill="#C9C9C9"/>
<rect x="22528" width="341.333" height="74.6253" fill="#C9C9C9"/>
<path fill-rule="evenodd" clip-rule="evenodd" d="M22592.8 74.6253C22631.9 74.6253 22663.6 97.3605 22663.6 125.406H22734.5C22734.5 97.3605 22766.2 74.6253 22805.3 74.6253H22592.8ZM22592.8 74.6253C22592.4 74.6253 22592 74.6278 22591.6 74.6328V74.6253H22592.8Z" fill="#C9C9C9"/>
<rect x="22663.6" y="125.406" width="70.8294" height="422.582" fill="#C9C9C9"/>
<rect x="22869.3" width="341.333" height="74.6253" fill="#C9C9C9"/>
<path fill-rule="evenodd" clip-rule="evenodd" d="M22934.2 74.6253C22973.3 74.6253 23005 97.3605 23005 125.406H23075.8C23075.8 97.3605 23107.5 74.6253 23146.6 74.6253H22934.2ZM22934.2 74.6253C22933.7 74.6253 22933.3 74.6278 22932.9 74.6328V74.6253H22934.2Z" fill="#C9C9C9"/>
<rect x="23005" y="125.406" width="70.8294" height="422.582" fill="#C9C9C9"/>
<rect x="23210.7" width="341.333" height="74.6253" fill="#C9C9C9"/>
<path fill-rule="evenodd" clip-rule="evenodd" d="M23275.5 74.6253C23314.6 74.6253 23346.3 97.3605 23346.3 125.406H23417.1C23417.1 97.3605 23448.9 74.6253 23488 74.6253H23275.5ZM23275.5 74.6253C23275.1 74.6253 23274.7 74.6278 23274.3 74.6328V74.6253H23275.5Z" fill="#C9C9C9"/>
<rect x="23346.3" y="125.406" width="70.8294" height="422.582" fill="#C9C9C9"/>
<rect x="23552" width="341.333" height="74.6253" fill="#C9C9C9"/>
<path fill-rule="evenodd" clip-rule="evenodd" d="M23616.8 74.6253C23655.9 74.6253 23687.6 97.3605 23687.6 125.406H23758.5C23758.5 97.3605 23790.2 74.6253 23829.3 74.6253H23616.8ZM23616.8 74.6253C23616.4 74.6253 23616 74.6278 23615.6 74.6328V74.6253H23616.8Z" fill="#C9C9C9"/>
<rect x="23687.6" y="125.406" width="70.8294" height="422.582" fill="#C9C9C9"/>
<rect x="23893.3" width="341.333" height="74.6253" fill="#C9C9C9"/>
<path fill-rule="evenodd" clip-rule="evenodd" d="M23958.2 74.6253C23997.3 74.6253 24029 97.3605 24029 125.406H24099.8C24099.8 97.3605 24131.5 74.6253 24170.6 74.6253H23958.2ZM23958.2 74.6253C23957.7 74.6253 23957.3 74.6278 23956.9 74.6328V74.6253H23958.2Z" fill="#C9C9C9"/>
<rect x="24029" y="125.406" width="70.8294" height="422.582" fill="#C9C9C9"/>
<rect x="24234.7" width="341.333" height="74.6253" fill="#C9C9C9"/>
<path fill-rule="evenodd" clip-rule="evenodd" d="M24299.5 74.6253C24338.6 74.6253 24370.3 97.3605 24370.3 125.406H24441.1C24441.1 97.3605 24472.9 74.6253 24512 74.6253H24299.5ZM24299.5 74.6253C24299.1 74.6253 24298.7 74.6278 24298.3 74.6328V74.6253H24299.5Z" fill="#C9C9C9"/>
<rect x="24370.3" y="125.406" width="70.8294" height="422.582" fill="#C9C9C9"/>
<rect x="24576" width="341.333" height="74.6253" fill="#C9C9C9"/>
<path fill-rule="evenodd" clip-rule="evenodd" d="M24640.8 74.6253C24679.9 74.6253 24711.6 97.3605 24711.6 125.406H24782.5C24782.5 97.3605 24814.2 74.6253 24853.3 74.6253H24640.8ZM24640.8 74.6253C24640.4 74.6253 24640 74.6278 24639.6 74.6328V74.6253H24640.8Z" fill="#C9C9C9"/>
<rect x="24711.6" y="125.406" width="70.8294" height="422.582" fill="#C9C9C9"/>
<rect x="24917.3" width="341.333" height="74.6253" fill="#C9C9C9"/>
<path fill-rule="evenodd" clip-rule="evenodd" d="M24982.2 74.6253C25021.3 74.6253 25053 97.3605 25053 125.406H25123.8C25123.8 97.3605 25155.5 74.6253 25194.6 74.6253H24982.2ZM24982.2 74.6253C24981.7 74.6253 24981.3 74.6278 24980.9 74.6328V74.6253H24982.2Z" fill="#C9C9C9"/>
<rect x="25053" y="125.406" width="70.8294" height="422.582" fill="#C9C9C9"/>
<rect x="25258.7" width="341.333" height="74.6253" fill="#C9C9C9"/>
<path fill-rule="evenodd" clip-rule="evenodd" d="M25323.5 74.6253C25362.6 74.6253 25394.3 97.3605 25394.3 125.406H25465.1C25465.1 97.3605 25496.9 74.6253 25536 74.6253H25323.5ZM25323.5 74.6253C25323.1 74.6253 25322.7 74.6278 25322.3 74.6328V74.6253H25323.5Z" fill="#C9C9C9"/>
<rect x="25394.3" y="125.406" width="70.8294" height="422.582" fill="#C9C9C9"/>
<rect x="25600" width="341.333" height="74.6253" fill="#C9C9C9"/>
<path fill-rule="evenodd" clip-rule="evenodd" d="M25664.8 74.6253C25703.9 74.6253 25735.6 97.3605 25735.6 125.406H25806.5C25806.5 97.3605 25838.2 74.6253 25877.3 74.6253H25664.8ZM25664.8 74.6253C25664.4 74.6253 25664 74.6278 25663.6 74.6328V74.6253H25664.8Z" fill="#C9C9C9"/>
<rect x="25735.6" y="125.406" width="70.8294" height="422.582" fill="#C9C9C9"/>
<rect x="25941.3" width="341.333" height="74.6253" fill="#C9C9C9"/>
<path fill-rule="evenodd" clip-rule="evenodd" d="M26006.2 74.6253C26045.3 74.6253 26077 97.3605 26077 125.406H26147.8C26147.8 97.3605 26179.5 74.6253 26218.6 74.6253H26006.2ZM26006.2 74.6253C26005.7 74.6253 26005.3 74.6278 26004.9 74.6328V74.6253H26006.2Z" fill="#C9C9C9"/>
<rect x="26077" y="125.406" width="70.8294" height="422.582" fill="#C9C9C9"/>
<rect x="26282.7" width="341.333" height="74.6253" fill="#C9C9C9"/>
<path fill-rule="evenodd" clip-rule="evenodd" d="M26347.5 74.6253C26386.6 74.6253 26418.3 97.3605 26418.3 125.406H26489.1C26489.1 97.3605 26520.9 74.6253 26560 74.6253H26347.5ZM26347.5 74.6253C26347.1 74.6253 26346.7 74.6278 26346.3 74.6328V74.6253H26347.5Z" fill="#C9C9C9"/>
<rect x="26418.3" y="125.406" width="70.8294" height="422.582" fill="#C9C9C9"/>
<rect x="26624" width="341.333" height="74.6253" fill="#C9C9C9"/>
<path fill-rule="evenodd" clip-rule="evenodd" d="M26688.8 74.6253C26727.9 74.6253 26759.6 97.3605 26759.6 125.406H26830.5C26830.5 97.3605 26862.2 74.6253 26901.3 74.6253H26688.8ZM26688.8 74.6253C26688.4 74.6253 26688 74.6278 26687.6 74.6328V74.6253H26688.8Z" fill="#C9C9C9"/>
<rect x="26759.6" y="125.406" width="70.8294" height="422.582" fill="#C9C9C9"/>
<rect x="26965.3" width="341.333" height="74.6253" fill="#C9C9C9"/>
<path fill-rule="evenodd" clip-rule="evenodd" d="M27030.2 74.6253C27069.3 74.6253 27101 97.3605 27101 125.406H27171.8C27171.8 97.3605 27203.5 74.6253 27242.6 74.6253H27030.2ZM27030.2 74.6253C27029.7 74.6253 27029.3 74.6278 27028.9 74.6328V74.6253H27030.2Z" fill="#C9C9C9"/>
<rect x="27101" y="125.406" width="70.8294" height="422.582" fill="#C9C9C9"/>
<rect x="27306.7" width="341.333" height="74.6253" fill="#C9C9C9"/>
<path fill-rule="evenodd" clip-rule="evenodd" d="M27371.5 74.6253C27410.6 74.6253 27442.3 97.3605 27442.3 125.406H27513.1C27513.1 97.3605 27544.9 74.6253 27584 74.6253H27371.5ZM27371.5 74.6253C27371.1 74.6253 27370.7 74.6278 27370.3 74.6328V74.6253H27371.5Z" fill="#C9C9C9"/>
<rect x="27442.3" y="125.406" width="70.8294" height="422.582" fill="#C9C9C9"/>
<rect x="27648" width="341.333" height="74.6253" fill="#C9C9C9"/>
<path fill-rule="evenodd" clip-rule="evenodd" d="M27712.8 74.6253C27751.9 74.6253 27783.6 97.3605 27783.6 125.406H27854.5C27854.5 97.3605 27886.2 74.6253 27925.3 74.6253H27712.8ZM27712.8 74.6253C27712.4 74.6253 27712 74.6278 27711.6 74.6328V74.6253H27712.8Z" fill="#C9C9C9"/>
<rect x="27783.6" y="125.406" width="70.8294" height="422.582" fill="#C9C9C9"/>
<rect x="27989.3" width="341.333" height="74.6253" fill="#C9C9C9"/>
<path fill-rule="evenodd" clip-rule="evenodd" d="M28054.2 74.6253C28093.3 74.6253 28125 97.3605 28125 125.406H28195.8C28195.8 97.3605 28227.5 74.6253 28266.6 74.6253H28054.2ZM28054.2 74.6253C28053.7 74.6253 28053.3 74.6278 28052.9 74.6328V74.6253H28054.2Z" fill="#C9C9C9"/>
<rect x="28125" y="125.406" width="70.8294" height="422.582" fill="#C9C9C9"/>
<rect x="28330.7" width="341.333" height="74.6253" fill="#C9C9C9"/>
<path fill-rule="evenodd" clip-rule="evenodd" d="M28395.5 74.6253C28434.6 74.6253 28466.3 97.3605 28466.3 125.406H28537.1C28537.1 97.3605 28568.9 74.6253 28608 74.6253H28395.5ZM28395.5 74.6253C28395.1 74.6253 28394.7 74.6278 28394.3 74.6328V74.6253H28395.5Z" fill="#C9C9C9"/>
<rect x="28466.3" y="125.406" width="70.8294" height="422.582" fill="#C9C9C9"/>
<rect x="28672" width="341.333" height="74.6253" fill="#C9C9C9"/>
<path fill-rule="evenodd" clip-rule="evenodd" d="M28736.8 74.6253C28775.9 74.6253 28807.6 97.3605 28807.6 125.406H28878.5C28878.5 97.3605 28910.2 74.6253 28949.3 74.6253H28736.8ZM28736.8 74.6253C28736.4 74.6253 28736 74.6278 28735.6 74.6328V74.6253H28736.8Z" fill="#C9C9C9"/>
<rect x="28807.6" y="125.406" width="70.8294" height="422.582" fill="#C9C9C9"/>
<rect x="29013.3" width="341.333" height="74.6253" fill="#C9C9C9"/>
<path fill-rule="evenodd" clip-rule="evenodd" d="M29078.2 74.6253C29117.3 74.6253 29149 97.3605 29149 125.406H29219.8C29219.8 97.3605 29251.5 74.6253 29290.6 74.6253H29078.2ZM29078.2 74.6253C29077.7 74.6253 29077.3 74.6278 29076.9 74.6328V74.6253H29078.2Z" fill="#C9C9C9"/>
<rect x="29149" y="125.406" width="70.8294" height="422.582" fill="#C9C9C9"/>
<rect x="29354.7" width="341.333" height="74.6253" fill="#C9C9C9"/>
<path fill-rule="evenodd" clip-rule="evenodd" d="M29419.5 74.6253C29458.6 74.6253 29490.3 97.3605 29490.3 125.406H29561.1C29561.1 97.3605 29592.9 74.6253 29632 74.6253H29419.5ZM29419.5 74.6253C29419.1 74.6253 29418.7 74.6278 29418.3 74.6328V74.6253H29419.5Z" fill="#C9C9C9"/>
<rect x="29490.3" y="125.406" width="70.8294" height="422.582" fill="#C9C9C9"/>
<rect x="29696" width="341.333" height="74.6253" fill="#C9C9C9"/>
<path fill-rule="evenodd" clip-rule="evenodd" d="M29760.8 74.6253C29799.9 74.6253 29831.6 97.3605 29831.6 125.406H29902.5C29902.5 97.3605 29934.2 74.6253 29973.3 74.6253H29760.8ZM29760.8 74.6253C29760.4 74.6253 29760 74.6278 29759.6 74.6328V74.6253H29760.8Z" fill="#C9C9C9"/>
<rect x="29831.6" y="125.406" width="70.8294" height="422.582" fill="#C9C9C9"/>
<rect x="30037.3" width="341.333" height="74.6253" fill="#C9C9C9"/>
<path fill-rule="evenodd" clip-rule="evenodd" d="M30102.2 74.6253C30141.3 74.6253 30173 97.3605 30173 125.406H30243.8C30243.8 97.3605 30275.5 74.6253 30314.6 74.6253H30102.2ZM30102.2 74.6253C30101.7 74.6253 30101.3 74.6278 30100.9 74.6328V74.6253H30102.2Z" fill="#C9C9C9"/>
<rect x="30173" y="125.406" width="70.8294" height="422.582" fill="#C9C9C9"/>
<rect x="30378.7" width="341.333" height="74.6253" fill="#C9C9C9"/>
<path fill-rule="evenodd" clip-rule="evenodd" d="M30443.5 74.6253C30482.6 74.6253 30514.3 97.3605 30514.3 125.406H30585.1C30585.1 97.3605 30616.9 74.6253 30656 74.6253H30443.5ZM30443.5 74.6253C30443.1 74.6253 30442.7 74.6278 30442.3 74.6328V74.6253H30443.5Z" fill="#C9C9C9"/>
<rect x="30514.3" y="125.406" width="70.8294" height="422.582" fill="#C9C9C9"/>
<rect x="30720" width="341.333" height="74.6253" fill="#C9C9C9"/>
<path fill-rule="evenodd" clip-rule="evenodd" d="M30784.8 74.6253C30823.9 74.6253 30855.6 97.3605 30855.6 125.406H30926.5C30926.5 97.3605 30958.2 74.6253 30997.3 74.6253H30784.8ZM30784.8 74.6253C30784.4 74.6253 30784 74.6278 30783.6 74.6328V74.6253H30784.8Z" fill="#C9C9C9"/>
<rect x="30855.6" y="125.406" width="70.8294" height="422.582" fill="#C9C9C9"/>
<rect x="31061.3" width="341.333" height="74.6253" fill="#C9C9C9"/>
<path fill-rule="evenodd" clip-rule="evenodd" d="M31126.2 74.6253C31165.3 74.6253 31197 97.3605 31197 125.406H31267.8C31267.8 97.3605 31299.5 74.6253 31338.6 74.6253H31126.2ZM31126.2 74.6253C31125.7 74.6253 31125.3 74.6278 31124.9 74.6328V74.6253H31126.2Z" fill="#C9C9C9"/>
<rect x="31197" y="125.406" width="70.8294" height="422.582" fill="#C9C9C9"/>
<rect x="31402.7" width="341.333" height="74.6253" fill="#C9C9C9"/>
<path fill-rule="evenodd" clip-rule="evenodd" d="M31467.5 74.6253C31506.6 74.6253 31538.3 97.3605 31538.3 125.406H31609.1C31609.1 97.3605 31640.9 74.6253 31680 74.6253H31467.5ZM31467.5 74.6253C31467.1 74.6253 31466.7 74.6278 31466.3 74.6328V74.6253H31467.5Z" fill="#C9C9C9"/>
<rect x="31538.3" y="125.406" width="70.8294" height="422.582" fill="#C9C9C9"/>
<rect x="31744" width="341.333" height="74.6253" fill="#C9C9C9"/>
<path fill-rule="evenodd" clip-rule="evenodd" d="M31808.8 74.6253C31847.9 74.6253 31879.6 97.3605 31879.6 125.406H31950.5C31950.5 97.3605 31982.2 74.6253 32021.3 74.6253H31808.8ZM31808.8 74.6253C31808.4 74.6253 31808 74.6278 31807.6 74.6328V74.6253H31808.8Z" fill="#C9C9C9"/>
<rect x="31879.6" y="125.406" width="70.8294" height="422.582" fill="#C9C9C9"/>
<rect x="32085.3" width="341.333" height="74.6253" fill="#C9C9C9"/>
<path fill-rule="evenodd" clip-rule="evenodd" d="M32150.2 74.6253C32189.3 74.6253 32221 97.3605 32221 125.406H32291.8C32291.8 97.3605 32323.5 74.6253 32362.6 74.6253H32150.2ZM32150.2 74.6253C32149.7 74.6253 32149.3 74.6278 32148.9 74.6328V74.6253H32150.2Z" fill="#C9C9C9"/>
<rect x="32221" y="125.406" width="70.8294" height="422.582" fill="#C9C9C9"/>
<rect x="32426.7" width="341.333" height="74.6253" fill="#C9C9C9"/>
<path fill-rule="evenodd" clip-rule="evenodd" d="M32491.5 74.6253C32530.6 74.6253 32562.3 97.3605 32562.3 125.406H32633.1C32633.1 97.3605 32664.9 74.6253 32704 74.6253H32491.5ZM32491.5 74.6253C32491.1 74.6253 32490.7 74.6278 32490.3 74.6328V74.6253H32491.5Z" fill="#C9C9C9"/>
<rect x="32562.3" y="125.406" width="70.8294" height="422.582" fill="#C9C9C9"/>
<rect x="10922.7" width="341.333" height="74.6253" fill="#C9C9C9"/>
<path fill-rule="evenodd" clip-rule="evenodd" d="M10987.5 74.6253C11026.6 74.6253 11058.3 97.3605 11058.3 125.406H11129.1C11129.1 97.3605 11160.9 74.6253 11200 74.6253H10987.5ZM10987.5 74.6253C10987.1 74.6253 10986.7 74.6278 10986.3 74.6328V74.6253H10987.5Z" fill="#C9C9C9"/>
<rect x="11058.3" y="125.406" width="70.8294" height="422.582" fill="#C9C9C9"/>
<rect x="11264" width="341.333" height="74.6253" fill="#C9C9C9"/>
<path fill-rule="evenodd" clip-rule="evenodd" d="M11328.8 74.6253C11367.9 74.6253 11399.6 97.3605 11399.6 125.406H11470.5C11470.5 97.3605 11502.2 74.6253 11541.3 74.6253H11328.8ZM11328.8 74.6253C11328.4 74.6253 11328 74.6278 11327.6 74.6328V74.6253H11328.8Z" fill="#C9C9C9"/>
<rect x="11399.6" y="125.406" width="70.8294" height="422.582" fill="#C9C9C9"/>
<rect x="11605.3" width="341.333" height="74.6253" fill="#C9C9C9"/>
<path fill-rule="evenodd" clip-rule="evenodd" d="M11670.2 74.6253C11709.3 74.6253 11741 97.3605 11741 125.406H11811.8C11811.8 97.3605 11843.5 74.6253 11882.6 74.6253H11670.2ZM11670.2 74.6253C11669.7 74.6253 11669.3 74.6278 11668.9 74.6328V74.6253H11670.2Z" fill="#C9C9C9"/>
<rect x="11741" y="125.406" width="70.8294" height="422.582" fill="#C9C9C9"/>
<rect x="11946.7" width="341.333" height="74.6253" fill="#C9C9C9"/>
<path fill-rule="evenodd" clip-rule="evenodd" d="M12011.5 74.6253C12050.6 74.6253 12082.3 97.3605 12082.3 125.406H12153.1C12153.1 97.3605 12184.9 74.6253 12224 74.6253H12011.5ZM12011.5 74.6253C12011.1 74.6253 12010.7 74.6278 12010.3 74.6328V74.6253H12011.5Z" fill="#C9C9C9"/>
<rect x="12082.3" y="125.406" width="70.8294" height="422.582" fill="#C9C9C9"/>
<rect x="12288" width="341.333" height="74.6253" fill="#C9C9C9"/>
<path fill-rule="evenodd" clip-rule="evenodd" d="M12352.8 74.6253C12391.9 74.6253 12423.6 97.3605 12423.6 125.406H12494.5C12494.5 97.3605 12526.2 74.6253 12565.3 74.6253H12352.8ZM12352.8 74.6253C12352.4 74.6253 12352 74.6278 12351.6 74.6328V74.6253H12352.8Z" fill="#C9C9C9"/>
<rect x="12423.6" y="125.406" width="70.8294" height="422.582" fill="#C9C9C9"/>
<rect x="12629.3" width="341.333" height="74.6253" fill="#C9C9C9"/>
<path fill-rule="evenodd" clip-rule="evenodd" d="M12694.2 74.6253C12733.3 74.6253 12765 97.3605 12765 125.406H12835.8C12835.8 97.3605 12867.5 74.6253 12906.6 74.6253H12694.2ZM12694.2 74.6253C12693.7 74.6253 12693.3 74.6278 12692.9 74.6328V74.6253H12694.2Z" fill="#C9C9C9"/>
<rect x="12765" y="125.406" width="70.8294" height="422.582" fill="#C9C9C9"/>
<rect x="12970.7" width="341.333" height="74.6253" fill="#C9C9C9"/>
<path fill-rule="evenodd" clip-rule="evenodd" d="M13035.5 74.6253C13074.6 74.6253 13106.3 97.3605 13106.3 125.406H13177.1C13177.1 97.3605 13208.9 74.6253 13248 74.6253H13035.5ZM13035.5 74.6253C13035.1 74.6253 13034.7 74.6278 13034.3 74.6328V74.6253H13035.5Z" fill="#C9C9C9"/>
<rect x="13106.3" y="125.406" width="70.8294" height="422.582" fill="#C9C9C9"/>
<rect x="13312" width="341.333" height="74.6253" fill="#C9C9C9"/>
<path fill-rule="evenodd" clip-rule="evenodd" d="M13376.8 74.6253C13415.9 74.6253 13447.6 97.3605 13447.6 125.406H13518.5C13518.5 97.3605 13550.2 74.6253 13589.3 74.6253H13376.8ZM13376.8 74.6253C13376.4 74.6253 13376 74.6278 13375.6 74.6328V74.6253H13376.8Z" fill="#C9C9C9"/>
<rect x="13447.6" y="125.406" width="70.8294" height="422.582" fill="#C9C9C9"/>
<rect x="13653.3" width="341.333" height="74.6253" fill="#C9C9C9"/>
<path fill-rule="evenodd" clip-rule="evenodd" d="M13718.2 74.6253C13757.3 74.6253 13789 97.3605 13789 125.406H13859.8C13859.8 97.3605 13891.5 74.6253 13930.6 74.6253H13718.2ZM13718.2 74.6253C13717.7 74.6253 13717.3 74.6278 13716.9 74.6328V74.6253H13718.2Z" fill="#C9C9C9"/>
<rect x="13789" y="125.406" width="70.8294" height="422.582" fill="#C9C9C9"/>
<rect x="13994.7" width="341.333" height="74.6253" fill="#C9C9C9"/>
<path fill-rule="evenodd" clip-rule="evenodd" d="M14059.5 74.6253C14098.6 74.6253 14130.3 97.3605 14130.3 125.406H14201.1C14201.1 97.3605 14232.9 74.6253 14272 74.6253H14059.5ZM14059.5 74.6253C14059.1 74.6253 14058.7 74.6278 14058.3 74.6328V74.6253H14059.5Z" fill="#C9C9C9"/>
<rect x="14130.3" y="125.406" width="70.8294" height="422.582" fill="#C9C9C9"/>
<rect x="14336" width="341.333" height="74.6253" fill="#C9C9C9"/>
<path fill-rule="evenodd" clip-rule="evenodd" d="M14400.8 74.6253C14439.9 74.6253 14471.6 97.3605 14471.6 125.406H14542.5C14542.5 97.3605 14574.2 74.6253 14613.3 74.6253H14400.8ZM14400.8 74.6253C14400.4 74.6253 14400 74.6278 14399.6 74.6328V74.6253H14400.8Z" fill="#C9C9C9"/>
<rect x="14471.6" y="125.406" width="70.8294" height="422.582" fill="#C9C9C9"/>
<rect x="14677.3" width="341.333" height="74.6253" fill="#C9C9C9"/>
<path fill-rule="evenodd" clip-rule="evenodd" d="M14742.2 74.6253C14781.3 74.6253 14813 97.3605 14813 125.406H14883.8C14883.8 97.3605 14915.5 74.6253 14954.6 74.6253H14742.2ZM14742.2 74.6253C14741.7 74.6253 14741.3 74.6278 14740.9 74.6328V74.6253H14742.2Z" fill="#C9C9C9"/>
<rect x="14813" y="125.406" width="70.8294" height="422.582" fill="#C9C9C9"/>
<rect x="15018.7" width="341.333" height="74.6253" fill="#C9C9C9"/>
<path fill-rule="evenodd" clip-rule="evenodd" d="M15083.5 74.6253C15122.6 74.6253 15154.3 97.3605 15154.3 125.406H15225.1C15225.1 97.3605 15256.9 74.6253 15296 74.6253H15083.5ZM15083.5 74.6253C15083.1 74.6253 15082.7 74.6278 15082.3 74.6328V74.6253H15083.5Z" fill="#C9C9C9"/>
<rect x="15154.3" y="125.406" width="70.8294" height="422.582" fill="#C9C9C9"/>
<rect x="15360" width="341.333" height="74.6253" fill="#C9C9C9"/>
<path fill-rule="evenodd" clip-rule="evenodd" d="M15424.8 74.6253C15463.9 74.6253 15495.6 97.3605 15495.6 125.406H15566.5C15566.5 97.3605 15598.2 74.6253 15637.3 74.6253H15424.8ZM15424.8 74.6253C15424.4 74.6253 15424 74.6278 15423.6 74.6328V74.6253H15424.8Z" fill="#C9C9C9"/>
<rect x="15495.6" y="125.406" width="70.8294" height="422.582" fill="#C9C9C9"/>
<rect x="15701.3" width="341.333" height="74.6253" fill="#C9C9C9"/>
<path fill-rule="evenodd" clip-rule="evenodd" d="M15766.2 74.6253C15805.3 74.6253 15837 97.3605 15837 125.406H15907.8C15907.8 97.3605 15939.5 74.6253 15978.6 74.6253H15766.2ZM15766.2 74.6253C15765.7 74.6253 15765.3 74.6278 15764.9 74.6328V74.6253H15766.2Z" fill="#C9C9C9"/>
<rect x="15837" y="125.406" width="70.8294" height="422.582" fill="#C9C9C9"/>
<rect x="16042.7" width="341.333" height="74.6253" fill="#C9C9C9"/>
<path fill-rule="evenodd" clip-rule="evenodd" d="M16107.5 74.6253C16146.6 74.6253 16178.3 97.3605 16178.3 125.406H16249.1C16249.1 97.3605 16280.9 74.6253 16320 74.6253H16107.5ZM16107.5 74.6253C16107.1 74.6253 16106.7 74.6278 16106.3 74.6328V74.6253H16107.5Z" fill="#C9C9C9"/>
<rect x="16178.3" y="125.406" width="70.8294" height="422.582" fill="#C9C9C9"/>
<rect x="5461.33" width="341.333" height="74.6253" fill="#C9C9C9"/>
<path fill-rule="evenodd" clip-rule="evenodd" d="M5526.15 74.6253C5565.27 74.6253 5596.98 97.3605 5596.98 125.406H5667.81C5667.81 97.3605 5699.52 74.6253 5738.64 74.6253H5526.15ZM5526.15 74.6253C5525.74 74.6253 5525.33 74.6278 5524.92 74.6328V74.6253H5526.15Z" fill="#C9C9C9"/>
<rect x="5596.98" y="125.406" width="70.8294" height="422.582" fill="#C9C9C9"/>
<rect x="5802.67" width="341.333" height="74.6253" fill="#C9C9C9"/>
<path fill-rule="evenodd" clip-rule="evenodd" d="M5867.48 74.6253C5906.6 74.6253 5938.31 97.3605 5938.31 125.406H6009.14C6009.14 97.3605 6040.85 74.6253 6079.97 74.6253H5867.48ZM5867.48 74.6253C5867.07 74.6253 5866.66 74.6278 5866.25 74.6328V74.6253H5867.48Z" fill="#C9C9C9"/>
<rect x="5938.31" y="125.406" width="70.8294" height="422.582" fill="#C9C9C9"/>
<rect x="6144" width="341.333" height="74.6253" fill="#C9C9C9"/>
<path fill-rule="evenodd" clip-rule="evenodd" d="M6208.82 74.6253C6247.94 74.6253 6279.65 97.3605 6279.65 125.406H6350.48C6350.48 97.3605 6382.19 74.6253 6421.31 74.6253H6208.82ZM6208.82 74.6253C6208.41 74.6253 6208 74.6278 6207.59 74.6328V74.6253H6208.82Z" fill="#C9C9C9"/>
<rect x="6279.65" y="125.406" width="70.8294" height="422.582" fill="#C9C9C9"/>
<rect x="6485.33" width="341.333" height="74.6253" fill="#C9C9C9"/>
<path fill-rule="evenodd" clip-rule="evenodd" d="M6550.15 74.6253C6589.27 74.6253 6620.98 97.3605 6620.98 125.406H6691.81C6691.81 97.3605 6723.52 74.6253 6762.64 74.6253H6550.15ZM6550.15 74.6253C6549.74 74.6253 6549.33 74.6278 6548.92 74.6328V74.6253H6550.15Z" fill="#C9C9C9"/>
<rect x="6620.98" y="125.406" width="70.8294" height="422.582" fill="#C9C9C9"/>
<rect x="6826.67" width="341.333" height="74.6253" fill="#C9C9C9"/>
<path fill-rule="evenodd" clip-rule="evenodd" d="M6891.48 74.6253C6930.6 74.6253 6962.31 97.3605 6962.31 125.406H7033.14C7033.14 97.3605 7064.85 74.6253 7103.97 74.6253H6891.48ZM6891.48 74.6253C6891.07 74.6253 6890.66 74.6278 6890.25 74.6328V74.6253H6891.48Z" fill="#C9C9C9"/>
<rect x="6962.31" y="125.406" width="70.8294" height="422.582" fill="#C9C9C9"/>
<rect x="7168" width="341.333" height="74.6253" fill="#C9C9C9"/>
<path fill-rule="evenodd" clip-rule="evenodd" d="M7232.82 74.6253C7271.94 74.6253 7303.65 97.3605 7303.65 125.406H7374.48C7374.48 97.3605 7406.19 74.6253 7445.31 74.6253H7232.82ZM7232.82 74.6253C7232.41 74.6253 7232 74.6278 7231.59 74.6328V74.6253H7232.82Z" fill="#C9C9C9"/>
<rect x="7303.65" y="125.406" width="70.8294" height="422.582" fill="#C9C9C9"/>
<rect x="7509.33" width="341.333" height="74.6253" fill="#C9C9C9"/>
<path fill-rule="evenodd" clip-rule="evenodd" d="M7574.15 74.6253C7613.27 74.6253 7644.98 97.3605 7644.98 125.406H7715.81C7715.81 97.3605 7747.52 74.6253 7786.64 74.6253H7574.15ZM7574.15 74.6253C7573.74 74.6253 7573.33 74.6278 7572.92 74.6328V74.6253H7574.15Z" fill="#C9C9C9"/>
<rect x="7644.98" y="125.406" width="70.8294" height="422.582" fill="#C9C9C9"/>
<rect x="7850.67" width="341.333" height="74.6253" fill="#C9C9C9"/>
<path fill-rule="evenodd" clip-rule="evenodd" d="M7915.48 74.6253C7954.6 74.6253 7986.31 97.3605 7986.31 125.406H8057.14C8057.14 97.3605 8088.85 74.6253 8127.97 74.6253H7915.48ZM7915.48 74.6253C7915.07 74.6253 7914.66 74.6278 7914.25 74.6328V74.6253H7915.48Z" fill="#C9C9C9"/>
<rect x="7986.31" y="125.406" width="70.8294" height="422.582" fill="#C9C9C9"/>
<rect x="8192" width="341.333" height="74.6253" fill="#C9C9C9"/>
<path fill-rule="evenodd" clip-rule="evenodd" d="M8256.82 74.6253C8295.94 74.6253 8327.65 97.3605 8327.65 125.406H8398.48C8398.48 97.3605 8430.19 74.6253 8469.31 74.6253H8256.82ZM8256.82 74.6253C8256.41 74.6253 8256 74.6278 8255.59 74.6328V74.6253H8256.82Z" fill="#C9C9C9"/>
<rect x="8327.65" y="125.406" width="70.8294" height="422.582" fill="#C9C9C9"/>
<rect x="8533.33" width="341.333" height="74.6253" fill="#C9C9C9"/>
<path fill-rule="evenodd" clip-rule="evenodd" d="M8598.15 74.6253C8637.27 74.6253 8668.98 97.3605 8668.98 125.406H8739.81C8739.81 97.3605 8771.52 74.6253 8810.64 74.6253H8598.15ZM8598.15 74.6253C8597.74 74.6253 8597.33 74.6278 8596.92 74.6328V74.6253H8598.15Z" fill="#C9C9C9"/>
<rect x="8668.98" y="125.406" width="70.8294" height="422.582" fill="#C9C9C9"/>
<rect x="8874.67" width="341.333" height="74.6253" fill="#C9C9C9"/>
<path fill-rule="evenodd" clip-rule="evenodd" d="M8939.48 74.6253C8978.6 74.6253 9010.31 97.3605 9010.31 125.406H9081.14C9081.14 97.3605 9112.85 74.6253 9151.97 74.6253H8939.48ZM8939.48 74.6253C8939.07 74.6253 8938.66 74.6278 8938.25 74.6328V74.6253H8939.48Z" fill="#C9C9C9"/>
<rect x="9010.31" y="125.406" width="70.8294" height="422.582" fill="#C9C9C9"/>
<rect x="9216" width="341.333" height="74.6253" fill="#C9C9C9"/>
<path fill-rule="evenodd" clip-rule="evenodd" d="M9280.82 74.6253C9319.94 74.6253 9351.65 97.3605 9351.65 125.406H9422.48C9422.48 97.3605 9454.19 74.6253 9493.31 74.6253H9280.82ZM9280.82 74.6253C9280.41 74.6253 9280 74.6278 9279.59 74.6328V74.6253H9280.82Z" fill="#C9C9C9"/>
<rect x="9351.65" y="125.406" width="70.8294" height="422.582" fill="#C9C9C9"/>
<rect x="9557.33" width="341.333" height="74.6253" fill="#C9C9C9"/>
<path fill-rule="evenodd" clip-rule="evenodd" d="M9622.15 74.6253C9661.27 74.6253 9692.98 97.3605 9692.98 125.406H9763.81C9763.81 97.3605 9795.52 74.6253 9834.64 74.6253H9622.15ZM9622.15 74.6253C9621.74 74.6253 9621.33 74.6278 9620.92 74.6328V74.6253H9622.15Z" fill="#C9C9C9"/>
<rect x="9692.98" y="125.406" width="70.8294" height="422.582" fill="#C9C9C9"/>
<rect x="9898.67" width="341.333" height="74.6253" fill="#C9C9C9"/>
<path fill-rule="evenodd" clip-rule="evenodd" d="M9963.48 74.6253C10002.6 74.6253 10034.3 97.3605 10034.3 125.406H10105.1C10105.1 97.3605 10136.9 74.6253 10176 74.6253H9963.48ZM9963.48 74.6253C9963.07 74.6253 9962.66 74.6278 9962.25 74.6328V74.6253H9963.48Z" fill="#C9C9C9"/>
<rect x="10034.3" y="125.406" width="70.8294" height="422.582" fill="#C9C9C9"/>
<rect x="10240" width="341.333" height="74.6253" fill="#C9C9C9"/>
<path fill-rule="evenodd" clip-rule="evenodd" d="M10304.8 74.6253C10343.9 74.6253 10375.6 97.3605 10375.6 125.406H10446.5C10446.5 97.3605 10478.2 74.6253 10517.3 74.6253H10304.8ZM10304.8 74.6253C10304.4 74.6253 10304 74.6278 10303.6 74.6328V74.6253H10304.8Z" fill="#C9C9C9"/>
<rect x="10375.6" y="125.406" width="70.8294" height="422.582" fill="#C9C9C9"/>
<rect x="10581.3" width="341.333" height="74.6253" fill="#C9C9C9"/>
<path fill-rule="evenodd" clip-rule="evenodd" d="M10646.2 74.6253C10685.3 74.6253 10717 97.3605 10717 125.406H10787.8C10787.8 97.3605 10819.5 74.6253 10858.6 74.6253H10646.2ZM10646.2 74.6253C10645.7 74.6253 10645.3 74.6278 10644.9 74.6328V74.6253H10646.2Z" fill="#C9C9C9"/>
<rect x="10717" y="125.406" width="70.8294" height="422.582" fill="#C9C9C9"/>
<rect width="341.333" height="74.6253" fill="#C9C9C9"/>
<path fill-rule="evenodd" clip-rule="evenodd" d="M64.8181 74.6253C103.936 74.6253 135.647 97.3605 135.647 125.406H206.477C206.477 97.3605 238.188 74.6253 277.306 74.6253H64.8181ZM64.8181 74.6253C64.4066 74.6253 63.9959 74.6278 63.586 74.6328V74.6253H64.8181Z" fill="#C9C9C9"/>
<rect x="135.648" y="125.406" width="70.8294" height="422.582" fill="#C9C9C9"/>
<rect x="341.333" width="341.333" height="74.6253" fill="#C9C9C9"/>
<path fill-rule="evenodd" clip-rule="evenodd" d="M406.151 74.6253C445.269 74.6253 476.981 97.3605 476.981 125.406H547.81C547.81 97.3605 579.521 74.6253 618.639 74.6253H406.151ZM406.151 74.6253C405.74 74.6253 405.329 74.6278 404.919 74.6328V74.6253H406.151Z" fill="#C9C9C9"/>
<rect x="476.981" y="125.406" width="70.8294" height="422.582" fill="#C9C9C9"/>
<rect x="682.667" width="341.333" height="74.6253" fill="#C9C9C9"/>
<path fill-rule="evenodd" clip-rule="evenodd" d="M747.485 74.6253C786.603 74.6253 818.314 97.3605 818.314 125.406H889.143C889.143 97.3605 920.855 74.6253 959.973 74.6253H747.485ZM747.485 74.6253C747.073 74.6253 746.663 74.6278 746.253 74.6328V74.6253H747.485Z" fill="#C9C9C9"/>
<rect x="818.315" y="125.406" width="70.8294" height="422.582" fill="#C9C9C9"/>
<rect x="1024" width="341.333" height="74.6253" fill="#C9C9C9"/>
<path fill-rule="evenodd" clip-rule="evenodd" d="M1088.82 74.6253C1127.94 74.6253 1159.65 97.3605 1159.65 125.406H1230.48C1230.48 97.3605 1262.19 74.6253 1301.31 74.6253H1088.82ZM1088.82 74.6253C1088.41 74.6253 1088 74.6278 1087.59 74.6328V74.6253H1088.82Z" fill="#C9C9C9"/>
<rect x="1159.65" y="125.406" width="70.8294" height="422.582" fill="#C9C9C9"/>
<rect x="1365.33" width="341.333" height="74.6253" fill="#C9C9C9"/>
<path fill-rule="evenodd" clip-rule="evenodd" d="M1430.15 74.6253C1469.27 74.6253 1500.98 97.3605 1500.98 125.406H1571.81C1571.81 97.3605 1603.52 74.6253 1642.64 74.6253H1430.15ZM1430.15 74.6253C1429.74 74.6253 1429.33 74.6278 1428.92 74.6328V74.6253H1430.15Z" fill="#C9C9C9"/>
<rect x="1500.98" y="125.406" width="70.8294" height="422.582" fill="#C9C9C9"/>
<rect x="1706.67" width="341.333" height="74.6253" fill="#C9C9C9"/>
<path fill-rule="evenodd" clip-rule="evenodd" d="M1771.48 74.6253C1810.6 74.6253 1842.31 97.3605 1842.31 125.406H1913.14C1913.14 97.3605 1944.85 74.6253 1983.97 74.6253H1771.48ZM1771.48 74.6253C1771.07 74.6253 1770.66 74.6278 1770.25 74.6328V74.6253H1771.48Z" fill="#C9C9C9"/>
<rect x="1842.31" y="125.406" width="70.8294" height="422.582" fill="#C9C9C9"/>
<rect x="2048" width="341.333" height="74.6253" fill="#C9C9C9"/>
<path fill-rule="evenodd" clip-rule="evenodd" d="M2112.82 74.6253C2151.94 74.6253 2183.65 97.3605 2183.65 125.406H2254.48C2254.48 97.3605 2286.19 74.6253 2325.31 74.6253H2112.82ZM2112.82 74.6253C2112.41 74.6253 2112 74.6278 2111.59 74.6328V74.6253H2112.82Z" fill="#C9C9C9"/>
<rect x="2183.65" y="125.406" width="70.8294" height="422.582" fill="#C9C9C9"/>
<rect x="2389.33" width="341.333" height="74.6253" fill="#C9C9C9"/>
<path fill-rule="evenodd" clip-rule="evenodd" d="M2454.15 74.6253C2493.27 74.6253 2524.98 97.3605 2524.98 125.406H2595.81C2595.81 97.3605 2627.52 74.6253 2666.64 74.6253H2454.15ZM2454.15 74.6253C2453.74 74.6253 2453.33 74.6278 2452.92 74.6328V74.6253H2454.15Z" fill="#C9C9C9"/>
<rect x="2524.98" y="125.406" width="70.8294" height="422.582" fill="#C9C9C9"/>
<rect x="2730.67" width="341.333" height="74.6253" fill="#C9C9C9"/>
<path fill-rule="evenodd" clip-rule="evenodd" d="M2795.48 74.6253C2834.6 74.6253 2866.31 97.3605 2866.31 125.406H2937.14C2937.14 97.3605 2968.85 74.6253 3007.97 74.6253H2795.48ZM2795.48 74.6253C2795.07 74.6253 2794.66 74.6278 2794.25 74.6328V74.6253H2795.48Z" fill="#C9C9C9"/>
<rect x="2866.31" y="125.406" width="70.8294" height="422.582" fill="#C9C9C9"/>
<rect x="3072" width="341.333" height="74.6253" fill="#C9C9C9"/>
<path fill-rule="evenodd" clip-rule="evenodd" d="M3136.82 74.6253C3175.94 74.6253 3207.65 97.3605 3207.65 125.406H3278.48C3278.48 97.3605 3310.19 74.6253 3349.31 74.6253H3136.82ZM3136.82 74.6253C3136.41 74.6253 3136 74.6278 3135.59 74.6328V74.6253H3136.82Z" fill="#C9C9C9"/>
<rect x="3207.65" y="125.406" width="70.8294" height="422.582" fill="#C9C9C9"/>
<rect x="3413.33" width="341.333" height="74.6253" fill="#C9C9C9"/>
<path fill-rule="evenodd" clip-rule="evenodd" d="M3478.15 74.6253C3517.27 74.6253 3548.98 97.3605 3548.98 125.406H3619.81C3619.81 97.3605 3651.52 74.6253 3690.64 74.6253H3478.15ZM3478.15 74.6253C3477.74 74.6253 3477.33 74.6278 3476.92 74.6328V74.6253H3478.15Z" fill="#C9C9C9"/>
<rect x="3548.98" y="125.406" width="70.8294" height="422.582" fill="#C9C9C9"/>
<rect x="3754.67" width="341.333" height="74.6253" fill="#C9C9C9"/>
<path fill-rule="evenodd" clip-rule="evenodd" d="M3819.48 74.6253C3858.6 74.6253 3890.31 97.3605 3890.31 125.406H3961.14C3961.14 97.3605 3992.85 74.6253 4031.97 74.6253H3819.48ZM3819.48 74.6253C3819.07 74.6253 3818.66 74.6278 3818.25 74.6328V74.6253H3819.48Z" fill="#C9C9C9"/>
<rect x="3890.31" y="125.406" width="70.8294" height="422.582" fill="#C9C9C9"/>
<rect x="4096" width="341.333" height="74.6253" fill="#C9C9C9"/>
<path fill-rule="evenodd" clip-rule="evenodd" d="M4160.82 74.6253C4199.94 74.6253 4231.65 97.3605 4231.65 125.406H4302.48C4302.48 97.3605 4334.19 74.6253 4373.31 74.6253H4160.82ZM4160.82 74.6253C4160.41 74.6253 4160 74.6278 4159.59 74.6328V74.6253H4160.82Z" fill="#C9C9C9"/>
<rect x="4231.65" y="125.406" width="70.8294" height="422.582" fill="#C9C9C9"/>
<rect x="4437.33" width="341.333" height="74.6253" fill="#C9C9C9"/>
<path fill-rule="evenodd" clip-rule="evenodd" d="M4502.15 74.6253C4541.27 74.6253 4572.98 97.3605 4572.98 125.406H4643.81C4643.81 97.3605 4675.52 74.6253 4714.64 74.6253H4502.15ZM4502.15 74.6253C4501.74 74.6253 4501.33 74.6278 4500.92 74.6328V74.6253H4502.15Z" fill="#C9C9C9"/>
<rect x="4572.98" y="125.406" width="70.8294" height="422.582" fill="#C9C9C9"/>
<rect x="4778.67" width="341.333" height="74.6253" fill="#C9C9C9"/>
<path fill-rule="evenodd" clip-rule="evenodd" d="M4843.48 74.6253C4882.6 74.6253 4914.31 97.3605 4914.31 125.406H4985.14C4985.14 97.3605 5016.85 74.6253 5055.97 74.6253H4843.48ZM4843.48 74.6253C4843.07 74.6253 4842.66 74.6278 4842.25 74.6328V74.6253H4843.48Z" fill="#C9C9C9"/>
<rect x="4914.31" y="125.406" width="70.8294" height="422.582" fill="#C9C9C9"/>
<rect x="5120" width="341.333" height="74.6253" fill="#C9C9C9"/>
<path fill-rule="evenodd" clip-rule="evenodd" d="M5184.82 74.6253C5223.94 74.6253 5255.65 97.3605 5255.65 125.406H5326.48C5326.48 97.3605 5358.19 74.6253 5397.31 74.6253H5184.82ZM5184.82 74.6253C5184.41 74.6253 5184 74.6278 5183.59 74.6328V74.6253H5184.82Z" fill="#C9C9C9"/>
<rect x="5255.65" y="125.406" width="70.8294" height="422.582" fill="#C9C9C9"/>
<rect x="16384" width="341.333" height="74.6253" fill="#C9C9C9"/>
<path fill-rule="evenodd" clip-rule="evenodd" d="M16448.8 74.6253C16487.9 74.6253 16519.6 97.3605 16519.6 125.406H16590.5C16590.5 97.3605 16622.2 74.6253 16661.3 74.6253H16448.8ZM16448.8 74.6253C16448.4 74.6253 16448 74.6278 16447.6 74.6328V74.6253H16448.8Z" fill="#C9C9C9"/>
<rect x="16519.6" y="125.406" width="70.8294" height="422.582" fill="#C9C9C9"/>
<rect x="16725.3" width="341.333" height="74.6253" fill="#C9C9C9"/>
<path fill-rule="evenodd" clip-rule="evenodd" d="M16790.2 74.6253C16829.3 74.6253 16861 97.3605 16861 125.406H16931.8C16931.8 97.3605 16963.5 74.6253 17002.6 74.6253H16790.2ZM16790.2 74.6253C16789.7 74.6253 16789.3 74.6278 16788.9 74.6328V74.6253H16790.2Z" fill="#C9C9C9"/>
<rect x="16861" y="125.406" width="70.8294" height="422.582" fill="#C9C9C9"/>
<rect x="17066.7" width="341.333" height="74.6253" fill="#C9C9C9"/>
<path fill-rule="evenodd" clip-rule="evenodd" d="M17131.5 74.6253C17170.6 74.6253 17202.3 97.3605 17202.3 125.406H17273.1C17273.1 97.3605 17304.9 74.6253 17344 74.6253H17131.5ZM17131.5 74.6253C17131.1 74.6253 17130.7 74.6278 17130.3 74.6328V74.6253H17131.5Z" fill="#C9C9C9"/>
<rect x="17202.3" y="125.406" width="70.8294" height="422.582" fill="#C9C9C9"/>
<rect x="17408" width="341.333" height="74.6253" fill="#C9C9C9"/>
<path fill-rule="evenodd" clip-rule="evenodd" d="M17472.8 74.6253C17511.9 74.6253 17543.6 97.3605 17543.6 125.406H17614.5C17614.5 97.3605 17646.2 74.6253 17685.3 74.6253H17472.8ZM17472.8 74.6253C17472.4 74.6253 17472 74.6278 17471.6 74.6328V74.6253H17472.8Z" fill="#C9C9C9"/>
<rect x="17543.6" y="125.406" width="70.8294" height="422.582" fill="#C9C9C9"/>
<rect x="17749.3" width="341.333" height="74.6253" fill="#C9C9C9"/>
<path fill-rule="evenodd" clip-rule="evenodd" d="M17814.2 74.6253C17853.3 74.6253 17885 97.3605 17885 125.406H17955.8C17955.8 97.3605 17987.5 74.6253 18026.6 74.6253H17814.2ZM17814.2 74.6253C17813.7 74.6253 17813.3 74.6278 17812.9 74.6328V74.6253H17814.2Z" fill="#C9C9C9"/>
<rect x="17885" y="125.406" width="70.8294" height="422.582" fill="#C9C9C9"/>
<rect x="18090.7" width="341.333" height="74.6253" fill="#C9C9C9"/>
<path fill-rule="evenodd" clip-rule="evenodd" d="M18155.5 74.6253C18194.6 74.6253 18226.3 97.3605 18226.3 125.406H18297.1C18297.1 97.3605 18328.9 74.6253 18368 74.6253H18155.5ZM18155.5 74.6253C18155.1 74.6253 18154.7 74.6278 18154.3 74.6328V74.6253H18155.5Z" fill="#C9C9C9"/>
<rect x="18226.3" y="125.406" width="70.8294" height="422.582" fill="#C9C9C9"/>
<rect x="18432" width="341.333" height="74.6253" fill="#C9C9C9"/>
<path fill-rule="evenodd" clip-rule="evenodd" d="M18496.8 74.6253C18535.9 74.6253 18567.6 97.3605 18567.6 125.406H18638.5C18638.5 97.3605 18670.2 74.6253 18709.3 74.6253H18496.8ZM18496.8 74.6253C18496.4 74.6253 18496 74.6278 18495.6 74.6328V74.6253H18496.8Z" fill="#C9C9C9"/>
<rect x="18567.6" y="125.406" width="70.8294" height="422.582" fill="#C9C9C9"/>
<rect x="18773.3" width="341.333" height="74.6253" fill="#C9C9C9"/>
<path fill-rule="evenodd" clip-rule="evenodd" d="M18838.2 74.6253C18877.3 74.6253 18909 97.3605 18909 125.406H18979.8C18979.8 97.3605 19011.5 74.6253 19050.6 74.6253H18838.2ZM18838.2 74.6253C18837.7 74.6253 18837.3 74.6278 18836.9 74.6328V74.6253H18838.2Z" fill="#C9C9C9"/>
<rect x="18909" y="125.406" width="70.8294" height="422.582" fill="#C9C9C9"/>
<rect x="19114.7" width="341.333" height="74.6253" fill="#C9C9C9"/>
<path fill-rule="evenodd" clip-rule="evenodd" d="M19179.5 74.6253C19218.6 74.6253 19250.3 97.3605 19250.3 125.406H19321.1C19321.1 97.3605 19352.9 74.6253 19392 74.6253H19179.5ZM19179.5 74.6253C19179.1 74.6253 19178.7 74.6278 19178.3 74.6328V74.6253H19179.5Z" fill="#C9C9C9"/>
<rect x="19250.3" y="125.406" width="70.8294" height="422.582" fill="#C9C9C9"/>
<rect x="19456" width="341.333" height="74.6253" fill="#C9C9C9"/>
<path fill-rule="evenodd" clip-rule="evenodd" d="M19520.8 74.6253C19559.9 74.6253 19591.6 97.3605 19591.6 125.406H19662.5C19662.5 97.3605 19694.2 74.6253 19733.3 74.6253H19520.8ZM19520.8 74.6253C19520.4 74.6253 19520 74.6278 19519.6 74.6328V74.6253H19520.8Z" fill="#C9C9C9"/>
<rect x="19591.6" y="125.406" width="70.8294" height="422.582" fill="#C9C9C9"/>
<rect x="19797.3" width="341.333" height="74.6253" fill="#C9C9C9"/>
<path fill-rule="evenodd" clip-rule="evenodd" d="M19862.2 74.6253C19901.3 74.6253 19933 97.3605 19933 125.406H20003.8C20003.8 97.3605 20035.5 74.6253 20074.6 74.6253H19862.2ZM19862.2 74.6253C19861.7 74.6253 19861.3 74.6278 19860.9 74.6328V74.6253H19862.2Z" fill="#C9C9C9"/>
<rect x="19933" y="125.406" width="70.8294" height="422.582" fill="#C9C9C9"/>
<rect x="20138.7" width="341.333" height="74.6253" fill="#C9C9C9"/>
<path fill-rule="evenodd" clip-rule="evenodd" d="M20203.5 74.6253C20242.6 74.6253 20274.3 97.3605 20274.3 125.406H20345.1C20345.1 97.3605 20376.9 74.6253 20416 74.6253H20203.5ZM20203.5 74.6253C20203.1 74.6253 20202.7 74.6278 20202.3 74.6328V74.6253H20203.5Z" fill="#C9C9C9"/>
<rect x="20274.3" y="125.406" width="70.8294" height="422.582" fill="#C9C9C9"/>
<rect x="20480" width="341.333" height="74.6253" fill="#C9C9C9"/>
<path fill-rule="evenodd" clip-rule="evenodd" d="M20544.8 74.6253C20583.9 74.6253 20615.6 97.3605 20615.6 125.406H20686.5C20686.5 97.3605 20718.2 74.6253 20757.3 74.6253H20544.8ZM20544.8 74.6253C20544.4 74.6253 20544 74.6278 20543.6 74.6328V74.6253H20544.8Z" fill="#C9C9C9"/>
<rect x="20615.6" y="125.406" width="70.8294" height="422.582" fill="#C9C9C9"/>
<rect x="20821.3" width="341.333" height="74.6253" fill="#C9C9C9"/>
<path fill-rule="evenodd" clip-rule="evenodd" d="M20886.2 74.6253C20925.3 74.6253 20957 97.3605 20957 125.406H21027.8C21027.8 97.3605 21059.5 74.6253 21098.6 74.6253H20886.2ZM20886.2 74.6253C20885.7 74.6253 20885.3 74.6278 20884.9 74.6328V74.6253H20886.2Z" fill="#C9C9C9"/>
<rect x="20957" y="125.406" width="70.8294" height="422.582" fill="#C9C9C9"/>
<rect x="21162.7" width="341.333" height="74.6253" fill="#C9C9C9"/>
<path fill-rule="evenodd" clip-rule="evenodd" d="M21227.5 74.6253C21266.6 74.6253 21298.3 97.3605 21298.3 125.406H21369.1C21369.1 97.3605 21400.9 74.6253 21440 74.6253H21227.5ZM21227.5 74.6253C21227.1 74.6253 21226.7 74.6278 21226.3 74.6328V74.6253H21227.5Z" fill="#C9C9C9"/>
<rect x="21298.3" y="125.406" width="70.8294" height="422.582" fill="#C9C9C9"/>
<rect x="21504" width="341.333" height="74.6253" fill="#C9C9C9"/>
<path fill-rule="evenodd" clip-rule="evenodd" d="M21568.8 74.6253C21607.9 74.6253 21639.6 97.3605 21639.6 125.406H21710.5C21710.5 97.3605 21742.2 74.6253 21781.3 74.6253H21568.8ZM21568.8 74.6253C21568.4 74.6253 21568 74.6278 21567.6 74.6328V74.6253H21568.8Z" fill="#C9C9C9"/>
<rect x="21639.6" y="125.406" width="70.8294" height="422.582" fill="#C9C9C9"/>
</svg>
