<svg width="1205" height="206" viewBox="0 0 1205 206" fill="none" xmlns="http://www.w3.org/2000/svg">
<g filter="url(#filter0_d_67_715)">
<path fill-rule="evenodd" clip-rule="evenodd" d="M742.69 6H845.494C970.494 6 1198.49 116.5 1198.5 156.5C1198.5 191.988 1160.86 191.662 1152.37 191.137C1151.22 191.066 1150.1 191 1148.96 191H1076.57H73.9939H51.6211C37.9072 191 25.9421 181.703 23.1498 168.276C19.0043 148.342 13.887 119.162 13.9956 97C14.0996 75.7782 19.0593 47.9385 23.1116 28.6671C25.9291 15.2675 37.8828 6 51.5754 6H73.9308H742.69Z" fill="white"/>
<mask id="mask0_67_715" style="mask-type:alpha" maskUnits="userSpaceOnUse" x="13" y="6" width="1186" height="186">
<path fill-rule="evenodd" clip-rule="evenodd" d="M742.69 6H845.494C970.494 6 1198.49 116.5 1198.5 156.5C1198.5 191.988 1160.86 191.662 1152.37 191.137C1151.22 191.066 1150.1 191 1148.96 191H1076.57H73.9939H51.6211C37.9072 191 25.9421 181.703 23.1498 168.276C19.0043 148.342 13.887 119.162 13.9956 97C14.0996 75.7782 19.0593 47.9385 23.1116 28.6671C25.9291 15.2675 37.8828 6 51.5754 6H73.9308H742.69Z" fill="white"/>
</mask>
<g mask="url(#mask0_67_715)">
<path d="M6.99219 82.6988C6.99219 82.6988 246.992 80.2057 384.992 101C530.992 123 815.492 216.5 815.492 216.5" stroke="#FFF500" stroke-width="15"/>
<path d="M6.99219 68.0933C6.99219 68.0933 246.992 65.6003 384.992 86.3945C530.992 108.394 815.492 201.895 815.492 201.895" stroke="#787878" stroke-width="15"/>
</g>
<path d="M944.196 53C925.929 53 911.11 53 901.992 53C896.469 53 892 57.4772 892 63V88.9365C892 94.4593 896.477 98.9365 902 98.9365H1019.53C1019.91 98.9365 1020.29 98.9591 1020.67 98.9787C1023.04 99.1002 1032 98.9921 1032 90.3699C1032 80.4378 975.288 53 944.196 53Z" fill="#23265D"/>
<path d="M119.996 63C119.996 57.4771 115.519 53 109.996 53H85.9961C80.4732 53 75.9961 57.4772 75.9961 63V166H119.996V63Z" fill="#A7A7A7"/>
<path d="M587.992 63C587.992 57.4771 583.515 53 577.992 53H553.992C548.469 53 543.992 57.4772 543.992 63V166H587.992V63Z" fill="#A7A7A7"/>
<rect width="44" height="75" rx="10" transform="matrix(-1 0 0 1 821.992 53)" fill="#23265D"/>
<rect width="44" height="75" rx="10" transform="matrix(-1 0 0 1 743.992 53)" fill="#23265D"/>
<rect width="44" height="75" rx="10" transform="matrix(-1 0 0 1 665.992 53)" fill="#23265D"/>
<rect width="44" height="75" rx="10" transform="matrix(-1 0 0 1 509.992 53)" fill="#23265D"/>
<rect width="44" height="75" rx="10" transform="matrix(-1 0 0 1 431.996 53)" fill="#23265D"/>
<rect width="44" height="75" rx="10" transform="matrix(-1 0 0 1 353.996 53)" fill="#23265D"/>
<rect width="44" height="75" rx="10" transform="matrix(-1 0 0 1 275.996 53)" fill="#23265D"/>
<rect width="44" height="75" rx="10" transform="matrix(-1 0 0 1 197.996 53)" fill="#23265D"/>
</g>
<defs>
<filter id="filter0_d_67_715" x="-0.0078125" y="0" width="1204.5" height="205.256" filterUnits="userSpaceOnUse" color-interpolation-filters="sRGB">
<feFlood flood-opacity="0" result="BackgroundImageFix"/>
<feColorMatrix in="SourceAlpha" type="matrix" values="0 0 0 0 0 0 0 0 0 0 0 0 0 0 0 0 0 0 127 0" result="hardAlpha"/>
<feOffset dx="-4" dy="4"/>
<feGaussianBlur stdDeviation="5"/>
<feComposite in2="hardAlpha" operator="out"/>
<feColorMatrix type="matrix" values="0 0 0 0 0 0 0 0 0 0 0 0 0 0 0 0 0 0 0.25 0"/>
<feBlend mode="normal" in2="BackgroundImageFix" result="effect1_dropShadow_67_715"/>
<feBlend mode="normal" in="SourceGraphic" in2="effect1_dropShadow_67_715" result="shape"/>
</filter>
</defs>
</svg>
