<svg width="1171" height="205" viewBox="0 0 1171 205" fill="none" xmlns="http://www.w3.org/2000/svg">
<g filter="url(#filter0_d_67_652)">
<path fill-rule="evenodd" clip-rule="evenodd" d="M1127.42 6C1141.11 6 1153.06 15.2675 1155.88 28.6671C1159.93 47.9385 1164.89 75.7782 1165 97C1165.11 119.162 1159.99 148.342 1155.84 168.276C1153.05 181.703 1141.09 191 1127.37 191H1105H74H51.6272C37.9133 191 25.9482 181.703 23.1559 168.276C19.0104 148.342 13.8931 119.162 14.0017 97C14.1057 75.7782 19.0654 47.9385 23.1177 28.6671C25.9352 15.2675 37.8889 6 51.5815 6H74H1105H1127.42Z" fill="white"/>
<mask id="mask0_67_652" style="mask-type:alpha" maskUnits="userSpaceOnUse" x="14" y="6" width="1151" height="185">
<path fill-rule="evenodd" clip-rule="evenodd" d="M1127.42 6C1141.11 6 1153.06 15.2675 1155.88 28.6671C1159.93 47.9385 1164.89 75.7782 1165 97C1165.11 119.162 1159.99 148.342 1155.84 168.276C1153.05 181.703 1141.09 191 1127.37 191H1105H74H51.6272C37.9133 191 25.9482 181.703 23.1559 168.276C19.0104 148.342 13.8931 119.162 14.0017 97C14.1057 75.7782 19.0654 47.9385 23.1177 28.6671C25.9352 15.2675 37.8889 6 51.5815 6H74H1105H1127.42Z" fill="white"/>
</mask>
<g mask="url(#mask0_67_652)">
<path d="M1165 157C1165 157 1012.64 112.547 912.103 103C785.153 90.9446 586 119.844 586 119.844" stroke="#FFF500" stroke-width="15"/>
<path d="M7 82.6995C7 82.6995 159.36 127.153 259.897 136.699C386.847 148.755 586 119.855 586 119.855" stroke="#FFF500" stroke-width="15"/>
<path d="M1165 142.301C1165 142.301 1012.64 97.8474 912.103 88.3005C785.153 76.2454 586 105.145 586 105.145" stroke="#777777" stroke-width="15"/>
<path d="M7 68.0003C7 68.0003 159.36 112.453 259.897 122C386.847 134.055 586 105.156 586 105.156" stroke="#777777" stroke-width="15"/>
</g>
<path d="M1100 63C1100 57.4771 1095.52 53 1090 53H1066C1060.48 53 1056 57.4772 1056 63V166H1100V63Z" fill="#A7A7A7"/>
<path d="M120 63C120 57.4771 115.523 53 110 53H86C80.4772 53 76 57.4772 76 63V166H120V63Z" fill="#A7A7A7"/>
<path d="M632 63C632 57.4771 627.523 53 622 53H588V166H632V63Z" fill="#A7A7A7"/>
<path d="M588 53H554C548.477 53 544 57.4772 544 63V166H588V53Z" fill="#A7A7A7"/>
<rect width="44" height="75" rx="10" transform="matrix(-1 0 0 1 1022 53)" fill="#23265D"/>
<rect width="44" height="75" rx="10" transform="matrix(-1 0 0 1 944 53)" fill="#23265D"/>
<rect width="44" height="75" rx="10" transform="matrix(-1 0 0 1 866 53)" fill="#23265D"/>
<rect width="44" height="75" rx="10" transform="matrix(-1 0 0 1 788 53)" fill="#23265D"/>
<rect width="44" height="75" rx="10" transform="matrix(-1 0 0 1 710 53)" fill="#23265D"/>
<rect width="44" height="75" rx="10" transform="matrix(-1 0 0 1 510 53)" fill="#23265D"/>
<rect width="44" height="75" rx="10" transform="matrix(-1 0 0 1 432 53)" fill="#23265D"/>
<rect width="44" height="75" rx="10" transform="matrix(-1 0 0 1 354 53)" fill="#23265D"/>
<rect width="44" height="75" rx="10" transform="matrix(-1 0 0 1 276 53)" fill="#23265D"/>
<rect width="44" height="75" rx="10" transform="matrix(-1 0 0 1 198 53)" fill="#23265D"/>
</g>
<defs>
<filter id="filter0_d_67_652" x="0" y="0" width="1171" height="205" filterUnits="userSpaceOnUse" color-interpolation-filters="sRGB">
<feFlood flood-opacity="0" result="BackgroundImageFix"/>
<feColorMatrix in="SourceAlpha" type="matrix" values="0 0 0 0 0 0 0 0 0 0 0 0 0 0 0 0 0 0 127 0" result="hardAlpha"/>
<feOffset dx="-4" dy="4"/>
<feGaussianBlur stdDeviation="5"/>
<feComposite in2="hardAlpha" operator="out"/>
<feColorMatrix type="matrix" values="0 0 0 0 0 0 0 0 0 0 0 0 0 0 0 0 0 0 0.25 0"/>
<feBlend mode="normal" in2="BackgroundImageFix" result="effect1_dropShadow_67_652"/>
<feBlend mode="normal" in="SourceGraphic" in2="effect1_dropShadow_67_652" result="shape"/>
</filter>
</defs>
</svg>
