<svg width="1432" height="1128" viewBox="0 0 1432 1128" fill="none" xmlns="http://www.w3.org/2000/svg">
<path d="M684.579 218.155C694.543 192.769 730.469 192.769 740.432 218.155L1003.44 888.29C1011.16 907.969 996.654 929.25 975.514 929.25L449.498 929.25C428.357 929.25 413.848 907.969 421.571 888.29L684.579 218.155Z" fill="#7DD6D1"/>
<path fill-rule="evenodd" clip-rule="evenodd" d="M712.506 256.487L464.165 889.25L960.847 889.25L712.506 256.487ZM740.432 218.155C730.469 192.769 694.543 192.769 684.579 218.155L421.571 888.29C413.848 907.969 428.357 929.25 449.498 929.25L975.514 929.25C996.654 929.25 1011.16 907.969 1003.44 888.29L740.432 218.155Z" fill="#7DD6D1"/>
<path d="M1040.08 218.155C1050.05 192.769 1085.97 192.769 1095.94 218.155L1358.94 888.29C1366.67 907.969 1352.16 929.25 1331.02 929.25L805.002 929.25C783.861 929.25 769.352 907.969 777.075 888.29L1040.08 218.155Z" fill="#7DD6D1"/>
<path fill-rule="evenodd" clip-rule="evenodd" d="M1068.01 256.487L819.669 889.25L1316.35 889.25L1068.01 256.487ZM1095.94 218.155C1085.97 192.769 1050.05 192.769 1040.08 218.155L777.075 888.29C769.352 907.969 783.861 929.25 805.002 929.25L1331.02 929.25C1352.16 929.25 1366.67 907.969 1358.94 888.29L1095.94 218.155Z" fill="#7DD6D1"/>
<path d="M602.523 857.36C608.579 872.782 601.01 890.32 585.147 895.105C501.627 920.297 411.509 915.179 330.954 880.05C241.196 840.908 170.663 767.714 134.873 676.568C99.0817 585.422 100.964 483.791 140.106 394.034C175.235 313.478 237.792 248.408 316.138 210.04C331.018 202.753 348.498 210.455 354.554 225.877L478.538 541.618L602.523 857.36Z" fill="#F2873B"/>
<path fill-rule="evenodd" clip-rule="evenodd" d="M335.634 233.118C333.442 227.536 328.04 226.263 324.63 227.933C250.529 264.223 191.36 325.768 158.135 401.96C121.113 486.855 119.333 582.981 153.185 669.189C187.037 755.398 253.749 824.628 338.644 861.649C414.835 894.875 500.073 899.716 579.067 875.888C582.702 874.792 585.795 870.184 583.602 864.601L335.634 233.118ZM372.866 218.498L620.835 849.981C630.755 875.243 618.709 905.711 590.619 914.184C502.574 940.741 407.574 935.346 322.655 898.315C228.035 857.052 153.682 779.893 115.952 683.809C78.2228 587.726 80.2073 480.59 121.469 385.971C158.501 301.051 224.447 232.457 307.037 192.01C333.387 179.105 362.946 193.236 372.866 218.498Z" fill="#F2873B"/>
</svg>
